HIERARCHY
ROOT hip
{
	OFFSET 0.000000 0.000000 0.000000
	CHANNELS 6 Xposition Yposition Zposition Xrotation Zrotation Yrotation 
	JOINT abdomen
	{
		OFFSET 0.000000 3.422050 0.000000
		CHANNELS 3 Xrotation Zrotation Yrotation 
		JOINT chest
		{
			OFFSET 0.000000 8.486693 -0.684411
			CHANNELS 3 Xrotation Zrotation Yrotation 
			JOINT neck
			{
				OFFSET 0.000000 10.266162 -0.273764
				CHANNELS 3 Xrotation Zrotation Yrotation 
				JOINT head
				{
					OFFSET 0.000000 3.148285 0.000000
					CHANNELS 3 Xrotation Zrotation Yrotation 
					End Site
					{
						OFFSET 0.000000 3.148289 0.000000
					}
				}
			}
			JOINT lCollar
			{
				OFFSET 3.422053 6.707223 -0.821293
				CHANNELS 3 Yrotation Zrotation Xrotation 
				JOINT lShldr
				{
					OFFSET 3.285171 0.000000 0.000000
					CHANNELS 3 Zrotation Yrotation Xrotation 
					JOINT lForeArm
					{
						OFFSET 10.129278 0.000000 0.000000
						CHANNELS 3 Yrotation Zrotation Xrotation 
						JOINT lHand
						{
							OFFSET 8.486692 0.000000 0.000000
							CHANNELS 3 Zrotation Yrotation Xrotation 
							End Site
							{
								OFFSET 4.106464 0.000000 0.000000
							}
						}
					}
				}
			}
			JOINT rCollar
			{
				OFFSET -3.558935 6.707223 -0.821293
				CHANNELS 3 Yrotation Zrotation Xrotation 
				JOINT rShldr
				{
					OFFSET -3.148289 0.000000 0.000000
					CHANNELS 3 Zrotation Yrotation Xrotation 
					JOINT rForeArm
					{
						OFFSET -10.266159 0.000000 0.000000
						CHANNELS 3 Yrotation Zrotation Xrotation 
						JOINT rHand
						{
							OFFSET -8.349810 0.000000 0.000000
							CHANNELS 3 Zrotation Yrotation Xrotation 
							End Site
							{
								OFFSET -4.106464 0.000000 0.000000
							}
						}
					}
				}
			}
		}
	}
	JOINT lThigh
	{
		OFFSET 5.338403 -1.642589 1.368821
		CHANNELS 3 Xrotation Zrotation Yrotation 
		JOINT lShin
		{
			OFFSET -2.053232 -20.121670 0.000000
			CHANNELS 3 Xrotation Zrotation Yrotation 
			JOINT lFoot
			{
				OFFSET 0.000000 -19.300380 -1.231939
				CHANNELS 3 Xrotation Yrotation Zrotation 
				End Site
				{
					OFFSET 0.000000 -2.463878 4.653993
				}
			}
		}
	}
	JOINT rThigh
	{
		OFFSET -5.338403 -1.642589 1.368821
		CHANNELS 3 Xrotation Zrotation Yrotation 
		JOINT rShin
		{
			OFFSET 2.053232 -20.121670 0.000000
			CHANNELS 3 Xrotation Zrotation Yrotation 
			JOINT rFoot
			{
				OFFSET 0.000000 -19.300380 -1.231939
				CHANNELS 3 Xrotation Yrotation Zrotation 
				End Site
				{
					OFFSET 0.000000 -2.463878 4.653993
				}
			}
		}
	}
}
MOTION
Frames: 16
Frame Time: 0.033264
20.110023 23.009954 11.627481 120.994507 0.003502 149.992432 7.692636 -0.115025 15.760339 34.407639 -0.460383 4.440266 13.993475 0.000000 0.000000 -0.159115 -0.099664 0.000138 -3.149354 -48.791447 -1.268173 -18.030058 0.548894 54.861275 -5.456168 0.740198 35.727417 8.124545 -10.370149 -13.419456 30.598261 -14.797550 7.664580 72.623505 22.019442 -31.952459 25.258533 35.382591 13.789574 24.523560 -5.870985 -34.479015 -71.679932 38.162197 5.408562 19.510784 2.927392 0.260262 0.000000 0.000000 0.000000 -83.220856 -50.780178 9.437467 99.499092 -18.007057 27.232622 11.901846 1.315318 -23.622967 
20.110023 23.009954 11.627481 120.994507 0.003502 149.992432 7.369560 -0.114897 15.760907 35.213890 -0.460499 4.442006 13.993475 0.000000 0.000000 -0.159115 -0.099664 0.000138 -3.587327 -47.909966 -1.693305 -18.952482 0.570820 54.862129 -5.660748 0.808997 35.732628 8.162505 -10.146623 -13.611458 30.410297 -15.255764 7.278655 72.748619 22.019270 -31.902403 25.384348 35.478256 13.719550 24.498383 -5.243579 -34.504105 -71.679932 38.162197 5.408562 19.510784 2.927392 0.260262 0.000000 0.000000 0.000000 -82.704727 -50.953690 9.080820 99.420502 -18.116957 27.269707 11.901846 1.315318 -23.622967 
20.110023 23.009954 11.627481 120.994507 0.003502 149.992432 7.046493 -0.114765 15.761473 36.019978 -0.460639 4.443742 13.993475 0.000000 0.000000 -0.159115 -0.099664 0.000138 -4.008292 -47.026642 -2.101356 -19.874668 0.592750 54.862617 -5.865334 0.877776 35.738079 8.199677 -9.922978 -13.803171 30.218727 -15.712683 6.890355 72.873718 22.018991 -31.852339 25.510447 35.573795 13.649179 24.472967 -4.616263 -34.529461 -71.679932 38.162197 5.408562 19.510784 2.927392 0.260262 0.000000 0.000000 0.000000 -82.184975 -51.125168 8.720377 99.341766 -18.226799 27.306967 11.901846 1.315318 -23.622967 
20.110023 23.009954 11.627481 120.994507 0.003502 149.992432 6.723441 -0.114630 15.762038 36.825825 -0.460804 4.445477 13.993475 0.000000 0.000000 -0.159115 -0.099664 0.000138 -4.413198 -46.141689 -2.493274 -20.796503 0.614679 54.862759 -6.069926 0.946533 35.743771 8.236062 -9.699221 -13.994602 30.023544 -16.168272 6.499650 72.998833 22.018621 -31.802286 25.636845 35.669201 13.578468 24.447298 -3.989070 -34.555069 -71.679932 38.162197 5.408562 19.510784 2.927392 0.260262 0.000000 0.000000 0.000000 -81.661613 -51.294559 8.356150 99.262917 -18.336596 27.344412 11.901846 1.315318 -23.622967 
20.110023 23.009954 11.627481 120.994507 0.003502 149.992432 6.400412 -0.114492 15.762605 37.631363 -0.460992 4.447209 13.993475 0.000000 0.000000 -0.159115 -0.099664 0.000138 -4.802927 -45.255367 -2.869942 -21.717859 0.636594 54.862541 -6.274524 1.015267 35.749725 8.271663 -9.475358 -14.185752 29.824697 -16.622461 6.106496 73.123940 22.018143 -31.752228 25.763542 35.764496 13.507421 24.421368 -3.362040 -34.580929 -71.679932 38.162197 5.408562 19.510784 2.927392 0.260262 0.000000 0.000000 0.000000 -81.134636 -51.461826 7.988148 99.183952 -18.446342 27.382042 11.901846 1.315318 -23.622967 
20.110023 23.009954 11.627481 120.994507 0.003502 149.992432 6.077406 -0.114350 15.763165 38.436501 -0.461206 4.448937 13.993475 0.000000 0.000000 -0.159115 -0.099664 0.000138 -5.178305 -44.367893 -3.232183 -22.638620 0.658490 54.861980 -6.479125 1.083977 35.755913 8.306481 -9.251391 -14.376621 29.622179 -17.075201 5.710860 73.249054 22.017569 -31.702181 25.890532 35.859650 13.436026 24.395180 -2.735211 -34.607059 -71.679932 38.162197 5.408562 19.510784 2.927392 0.260262 0.000000 0.000000 0.000000 -80.604095 -51.626972 7.616369 99.104851 -18.556042 27.419857 11.901846 1.315318 -23.622967 
20.110023 23.009954 11.627481 120.994507 0.003502 149.992432 5.754433 -0.114206 15.763732 39.241161 -0.461444 4.450662 13.993475 0.000000 0.000000 -0.159115 -0.099664 0.000138 -5.540099 -43.479500 -3.580764 -23.558681 0.680357 54.861069 -6.683732 1.152662 35.762348 8.340519 -9.027328 -14.567218 29.415951 -17.526445 5.312705 73.374161 22.016891 -31.652128 26.017818 35.954678 13.364285 24.368731 -2.108619 -34.633446 -71.679932 38.162197 5.408562 19.510784 2.927392 0.260262 0.000000 0.000000 0.000000 -80.069977 -51.789928 7.240841 99.025604 -18.665676 27.457840 11.901846 1.315318 -23.622967 
20.110023 23.009954 11.627481 120.994507 0.003502 149.992432 5.431495 -0.114058 15.764292 40.045261 -0.461705 4.452380 13.993475 0.000000 0.000000 -0.159115 -0.099664 0.000138 -5.889022 -42.590389 -3.916400 -24.477903 0.702185 54.859795 -6.888339 1.221320 35.769016 8.373781 -8.803181 -14.757551 29.206005 -17.976133 4.911995 73.499252 22.016106 -31.602074 26.145399 36.049568 13.292198 24.342007 -1.482304 -34.660107 -71.679932 38.162197 5.408562 19.510784 2.927392 0.260262 0.000000 0.000000 0.000000 -79.532280 -51.950687 6.861556 98.946243 -18.775270 27.496027 11.901846 1.315318 -23.622967 
20.110023 23.009954 11.627481 120.994507 0.003502 149.992432 5.108597 -0.113907 15.764855 40.848743 -0.461990 4.454095 13.993475 0.000000 0.000000 -0.159115 -0.099664 0.000138 -6.225743 -41.700756 -4.239756 -25.396189 0.723968 54.858181 -7.092950 1.289951 35.775951 8.406266 -8.578945 -14.947618 28.992296 -18.424219 4.508693 73.624352 22.015226 -31.552029 26.273277 36.144321 13.219762 24.315012 -0.856300 -34.687038 -71.679932 38.162197 5.408562 19.510782 2.927392 0.260262 0.000000 0.000000 0.000000 -78.990990 -52.109169 6.478544 98.866768 -18.884811 27.534389 11.901846 1.315318 -23.622967 
20.110023 23.009954 11.627481 120.994507 0.003502 149.992432 4.785747 -0.113753 15.765415 41.651485 -0.462299 4.455803 13.993475 0.000000 0.000000 -0.159115 -0.099664 0.000138 -6.550888 -40.810822 -4.551458 -26.313408 0.745699 54.856228 -7.297561 1.358550 35.783123 8.437977 -8.354631 -15.137424 28.774801 -18.870636 4.102762 73.749443 22.014248 -31.501993 26.401463 36.238949 13.146978 24.287745 -0.230649 -34.714245 -71.679932 38.162197 5.408562 19.510784 2.927392 0.260262 0.000000 0.000000 0.000000 -78.446220 -52.265430 6.091815 98.787163 -18.994297 27.572937 11.901846 1.315318 -23.622967 
20.110023 23.009954 11.627481 120.994507 0.003502 149.992432 4.462948 -0.113596 15.765974 42.453449 -0.462631 4.457505 13.993475 0.000000 0.000000 -0.159115 -0.099664 0.000138 -6.865038 -39.920765 -4.852089 -27.229456 0.767367 54.853924 -7.502172 1.427120 35.790543 8.468911 -8.130242 -15.326963 28.553492 -19.315332 3.694166 73.874550 22.013168 -31.451960 26.529945 36.333447 13.073849 24.260191 0.394614 -34.741730 -71.679932 38.162197 5.408562 19.510784 2.927392 0.260262 0.000000 0.000000 0.000000 -77.897911 -52.419373 5.701396 98.707428 -19.103731 27.611671 11.901846 1.315318 -23.622967 
20.110023 23.009954 11.627481 120.994507 0.003502 149.992432 4.140204 -0.113436 15.766534 43.254543 -0.462987 4.459199 13.993475 0.000000 0.000000 -0.159115 -0.099664 0.000138 -7.168746 -39.030781 -5.142198 -28.144209 0.788966 54.851273 -7.706782 1.495658 35.798195 8.499077 -7.905787 -15.516257 28.328346 -19.758265 3.282868 73.999626 22.011978 -31.401922 26.658735 36.427807 13.000373 24.232355 1.019452 -34.769505 -71.679932 38.162197 5.408562 19.510784 2.927392 0.260262 0.000000 0.000000 0.000000 -77.346123 -52.570988 5.307305 98.627579 -19.213108 27.650593 11.901846 1.315318 -23.622967 
20.110023 23.009954 11.627481 120.994507 0.003502 149.992432 3.817523 -0.113273 15.767091 44.054688 -0.463367 4.460887 13.993475 0.000000 0.000000 -0.159115 -0.099664 0.000138 -7.462520 -38.141045 -5.422292 -29.057558 0.810483 54.848278 -7.911390 1.564161 35.806099 8.528474 -7.681269 -15.705299 28.099335 -20.199362 2.868834 74.124695 22.010691 -31.351887 26.787823 36.522030 12.926544 24.204231 1.643826 -34.797581 -71.679932 38.162197 5.408562 19.510782 2.927392 0.260262 0.000000 0.000000 0.000000 -76.790825 -52.720215 4.909556 98.547569 -19.322433 27.689701 11.901846 1.315318 -23.622967 
20.110023 23.009954 11.627481 120.994507 0.003502 149.992432 3.494907 -0.113107 15.767644 44.853825 -0.463769 4.462569 13.993475 0.000000 0.000000 -0.159115 -0.099664 0.000138 -7.746841 -37.251732 -5.692855 -29.969402 0.831917 54.844963 -8.115997 1.632630 35.814255 8.557103 -7.456696 -15.894096 27.866438 -20.638588 2.452028 74.249779 22.009310 -31.301870 26.917217 36.616119 12.852362 24.175808 2.267702 -34.825935 -71.679932 38.162197 5.408562 19.510784 2.927392 0.260262 0.000000 0.000000 0.000000 -76.232117 -52.867077 4.508183 98.467445 -19.431698 27.728994 11.901846 1.315318 -23.622967 
20.110023 23.009954 11.627481 120.994507 0.003502 149.992432 3.172365 -0.112937 15.768202 45.651859 -0.464194 4.464242 13.993475 0.000000 0.000000 -0.159115 -0.099664 0.000138 -8.022160 -36.363010 -5.954334 -30.879610 0.853257 54.841312 -8.320598 1.701062 35.822636 8.584969 -7.232071 -16.082647 27.629623 -21.075876 2.032413 74.374847 22.007824 -31.251856 27.046911 36.710056 12.777827 24.147095 2.891041 -34.854607 -71.679932 38.162197 5.408562 19.510784 2.927392 0.260262 0.000000 0.000000 0.000000 -75.670013 -53.011517 4.103226 98.387184 -19.540907 27.768473 11.901846 1.315318 -23.622967 
20.110023 23.009954 11.627481 120.994507 0.003502 149.992432 2.849898 -0.112765 15.768754 46.448723 -0.464641 4.465906 13.993475 0.000000 0.000000 -0.159115 -0.099664 0.000138 -8.288904 -35.475067 -6.207158 -31.788076 0.874494 54.837318 -8.525198 1.769456 35.831280 8.612068 -7.007400 -16.270960 27.388859 -21.511168 1.609955 74.499901 22.006227 -31.201832 27.176912 36.803864 12.702938 24.118073 3.513806 -34.883568 -71.679932 38.162197 5.408562 19.510784 2.927392 0.260262 0.000000 0.000000 0.000000 -75.104500 -53.153481 3.694706 98.306808 -19.650066 27.808144 11.901846 1.315318 -23.622967 
